HIERARCHY
ROOT Hips
{
	OFFSET 15.585500 22.159004 44.358299
	CHANNELS 6 Xposition Yposition Zposition Zrotation Xrotation Yrotation
	JOINT Chest
	{
		OFFSET -0.128500 0.160400 6.566002
		CHANNELS 6 Xposition Yposition Zposition Zrotation Xrotation Yrotation
		JOINT Chest2
		{
			OFFSET 0.000000 0.000000 3.554802
			CHANNELS 6 Xposition Yposition Zposition Zrotation Xrotation Yrotation
			JOINT Neck
			{
				OFFSET 0.000000 0.000000 8.267998
				CHANNELS 6 Xposition Yposition Zposition Zrotation Xrotation Yrotation
				JOINT Head
				{
					OFFSET 0.000000 0.000002 2.173897
					CHANNELS 6 Xposition Yposition Zposition Zrotation Xrotation Yrotation
					End Site
					{
						OFFSET 0.000000 0.000000 7.718697
					}
				}
			}
			JOINT LeftCollar
			{
				OFFSET 2.057500 0.117599 5.946301
				CHANNELS 6 Xposition Yposition Zposition Zrotation Xrotation Yrotation
				JOINT LeftShoulder
				{
					OFFSET 4.957699 0.000000 0.000000
					CHANNELS 6 Xposition Yposition Zposition Zrotation Xrotation Yrotation
					JOINT LeftElbow
					{
						OFFSET 0.000000 0.000000 -8.465500
						CHANNELS 6 Xposition Yposition Zposition Zrotation Xrotation Yrotation
						JOINT LeftWrist
						{
							OFFSET 0.000000 -0.000002 -14.594898
							CHANNELS 6 Xposition Yposition Zposition Zrotation Xrotation Yrotation
							End Site
							{
								OFFSET 0.000000 0.000000 -2.173901
							}
						}
					}
				}
			}
			JOINT RightCollar
			{
				OFFSET -3.048500 -0.728800 6.604099
				CHANNELS 6 Xposition Yposition Zposition Zrotation Xrotation Yrotation
				JOINT RightShoulder
				{
					OFFSET -3.710299 0.000000 0.000000
					CHANNELS 6 Xposition Yposition Zposition Zrotation Xrotation Yrotation
					JOINT RightElbow
					{
						OFFSET 0.000000 0.000000 -10.450901
						CHANNELS 6 Xposition Yposition Zposition Zrotation Xrotation Yrotation
						JOINT RightWrist
						{
							OFFSET 0.000000 0.000000 -12.539200
							CHANNELS 6 Xposition Yposition Zposition Zrotation Xrotation Yrotation
							End Site
							{
								OFFSET 0.000000 -0.000002 -2.173901
							}
						}
					}
				}
			}
		}
	}
	JOINT LeftHip
	{
		OFFSET 2.442599 -0.601400 -2.767502
		CHANNELS 6 Xposition Yposition Zposition Zrotation Xrotation Yrotation
		JOINT LeftKnee
		{
			OFFSET 0.000000 -0.000002 -17.033703
			CHANNELS 6 Xposition Yposition Zposition Zrotation Xrotation Yrotation
			JOINT LeftAnkle
			{
				OFFSET 0.000000 -0.000002 -19.318800
				CHANNELS 6 Xposition Yposition Zposition Zrotation Xrotation Yrotation
				End Site
				{
					OFFSET 0.000000 -8.281900 0.000000
				}
			}
		}
	}
	JOINT RightHip
	{
		OFFSET -3.126200 -0.601400 -2.283501
		CHANNELS 6 Xposition Yposition Zposition Zrotation Xrotation Yrotation
		JOINT RightKnee
		{
			OFFSET 0.000000 -0.000002 -16.919401
			CHANNELS 6 Xposition Yposition Zposition Zrotation Xrotation Yrotation
			JOINT RightAnkle
			{
				OFFSET 0.000000 -0.000002 -18.035900
				CHANNELS 6 Xposition Yposition Zposition Zrotation Xrotation Yrotation
				End Site
				{
					OFFSET 0.000000 -9.230099 0.000000
				}
			}
		}
	}
}
MOTION
Frames: 4
Frame Time: 0.041667
23.310900 43.224205 6.591198 0.338430 -25.228591 -0.205843 -0.128495 0.160396 6.566002 -0.872254 20.815044 2.479854 -0.000002 0.000004 3.554804 -3.364273 -9.412686 -1.757608 0.000000 0.000002 8.267997 15.202447 21.905344 -14.049703 -0.000002 -0.000007 2.173895 -0.716232 6.248638 0.728515 2.057500 0.117603 5.946302 -25.002882 3.504668 12.825893 4.957698 0.000004 0.000004 -35.359842 -19.524135 -58.659236 -0.000004 -0.000002 -8.465498 -146.685266 -157.578898 -157.454739 0.000001 -0.000003 -14.594891 32.961619 -16.645721 -6.521278 -3.048501 -0.728800 6.604095 29.212029 2.516752 -16.809099 -3.710298 -0.000001 -0.000002 35.480046 -25.147387 68.495131 0.000005 0.000005 -10.450893 -44.361221 -53.871881 -22.434243 0.000002 0.000008 -12.539202 217.550268 6.640438 -57.593002 2.442599 -0.601397 -2.767499 123.488318 -10.912003 95.672618 -0.000006 -0.000007 -17.033699 -137.925384 23.511876 98.454691 -0.000003 0.000002 -19.318802 189.811053 134.410487 306.753850 -3.126190 -0.601402 -2.283499 -130.232761 -26.646895 -90.449367 0.000001 -0.000004 -16.919395 155.657484 11.129206 -146.216291 0.000001 -0.000001 -18.035896 34.501478 27.581491 -143.598047
23.311604 43.251404 6.572895 0.580761 -25.596035 -0.079648 -0.128499 0.160399 6.566000 -1.079510 21.072496 2.435264 -0.000001 -0.000001 3.554811 -3.067258 -9.413317 -1.691223 -0.000003 -0.000001 8.267999 14.706862 22.101476 -13.663037 -0.000000 0.000003 2.173901 -0.740569 6.262297 0.699613 2.057506 0.117594 5.946304 -24.863962 3.434823 12.708332 4.957701 0.000005 0.000003 -34.999033 -19.339310 -58.080172 0.000001 -0.000003 -8.465495 -147.106265 -156.723909 -156.731504 0.000005 0.000000 -14.594889 33.275199 -16.764310 -6.552586 -3.048501 -0.728802 6.604104 29.242704 2.477508 -16.732515 -3.710295 -0.000003 0.000004 35.056929 -25.095648 67.682653 0.000002 0.000005 -10.450893 -44.299050 -54.638877 -22.868691 0.000003 0.000011 -12.539192 217.615045 6.802414 -58.800989 2.442595 -0.601402 -2.767506 123.628596 -10.753150 95.743946 0.000000 0.000003 -17.033709 -138.772246 22.873569 100.052812 0.000007 0.000001 -19.318798 190.123670 134.760015 307.814687 -3.126194 -0.601406 -2.283502 -130.173693 -26.766552 -90.759369 0.000001 -0.000004 -16.919394 156.413982 11.476980 -146.343059 0.000000 0.000001 -18.035896 35.138434 26.924454 -143.925459
23.312401 43.277504 6.555492 0.652775 -25.768839 -0.026825 -0.128500 0.160408 6.566006 -1.127904 21.151831 2.372562 0.000001 0.000002 3.554804 -2.785935 -9.410361 -1.627718 0.000002 -0.000001 8.267996 14.228292 22.288318 -13.271551 -0.000001 0.000003 2.173895 -0.762441 6.267963 0.674536 2.057507 0.117601 5.946306 -24.727617 3.355864 12.583596 4.957703 0.000005 0.000001 -34.646107 -19.145430 -57.525137 -0.000000 0.000002 -8.465495 -147.523152 -155.871460 -156.027175 0.000004 -0.000002 -14.594896 33.606815 -16.851781 -6.560429 -3.048499 -0.728800 6.604102 29.284279 2.410466 -16.628666 -3.710299 0.000001 -0.000001 34.596021 -25.031057 66.839336 0.000002 0.000007 -10.450889 -44.258857 -55.403250 -23.343454 0.000004 0.000008 -12.539201 217.700382 6.976018 -60.001142 2.442592 -0.601394 -2.767501 123.944670 -10.370839 95.987169 -0.000001 -0.000010 -17.033709 -139.702039 22.199527 101.644813 -0.000000 0.000003 -19.318811 190.129927 135.168487 309.024642 -3.126194 -0.601397 -2.283496 -129.991190 -26.961617 -91.172302 -0.000003 -0.000001 -16.919407 156.952242 11.831566 -146.453749 -0.000002 -0.000000 -18.035898 35.740686 26.290621 -144.204609
23.313200 43.302399 6.539001 0.713343 -25.924808 0.018212 -0.128503 0.160395 6.566000 -1.164067 21.229714 2.298545 -0.000002 -0.000007 3.554808 -2.519736 -9.405497 -1.567004 0.000000 0.000004 8.268001 13.766730 22.469369 -12.878039 -0.000002 0.000001 2.173896 -0.782547 6.265636 0.652249 2.057508 0.117605 5.946307 -24.598848 3.273505 12.459230 4.957703 0.000007 0.000000 -34.302801 -18.946403 -57.001996 0.000002 0.000004 -8.465496 -147.905055 -154.984628 -155.409534 0.000000 -0.000006 -14.594889 33.965629 -16.826760 -6.497830 -3.048499 -0.728797 6.604095 29.322402 2.369676 -16.501438 -3.710299 0.000006 0.000001 34.143330 -24.984091 65.999722 0.000005 0.000005 -10.450899 -44.244562 -56.162545 -23.853498 0.000003 0.000009 -12.539196 217.801837 7.160232 -61.188680 2.442593 -0.601402 -2.767503 124.222413 -10.092200 96.215447 -0.000004 0.000001 -17.033705 -140.482484 21.584479 103.176114 0.000002 0.000004 -19.318806 190.251313 135.464344 309.917648 -3.126200 -0.601409 -2.283501 -129.846158 -27.038837 -91.604352 0.000001 -0.000005 -16.919399 157.554350 12.153913 -146.579165 0.000001 0.000000 -18.035900 36.297705 25.694291 -144.497556
